/* XPM */
static char *db7e986ce074425ef7af786c9b4b7f18ss7Dhlc5YRcGUuPz[] = {
/* columns rows colors chars-per-pixel */
"48 48 134 2 ",
"   c None",
".  c #35465C",
"X  c #274167",
"o  c #2B4367",
"O  c #2A4469",
"+  c #2F486B",
"@  c #324763",
"#  c #344A67",
"$  c #3A4D65",
"%  c #30476A",
"&  c #334A6C",
"*  c #3A4F6D",
"=  c #3E5165",
"-  c #3D526E",
";  c #364E71",
":  c #375072",
">  c #3B5272",
",  c #414A4F",
"<  c #424C51",
"1  c #4B565C",
"2  c #4D595F",
"3  c #435465",
"4  c #495764",
"5  c #4D5A63",
"6  c #42566F",
"7  c #47596F",
"8  c #505C63",
"9  c #405674",
"0  c #455973",
"q  c #4C5D72",
"w  c #465B79",
"e  c #4A5F7A",
"r  c #505F71",
"t  c #4C617B",
"y  c #546374",
"u  c #596775",
"i  c #5D6A76",
"p  c #53657C",
"a  c #596779",
"s  c #57697D",
"d  c #5B6B7D",
"f  c #616D77",
"g  c #626E7B",
"h  c #65717D",
"j  c #526680",
"k  c #556982",
"l  c #5B6D83",
"z  c #5E7086",
"x  c #5C708A",
"c  c #637384",
"v  c #6B7782",
"b  c #6C7A86",
"n  c #64758B",
"m  c #6A7A8C",
"M  c #69798E",
"N  c #697A8E",
"B  c #68798C",
"V  c #6C7C8D",
"C  c #6D7D8E",
"Z  c #6B7B8D",
"A  c #747C82",
"S  c #737F88",
"D  c #757F8A",
"F  c #727E88",
"G  c #6D7E92",
"H  c #707F90",
"J  c #707F92",
"K  c #707F91",
"L  c #788087",
"P  c #738089",
"I  c #748089",
"U  c #75818A",
"Y  c #76818A",
"T  c #73808D",
"R  c #77838B",
"E  c #79848C",
"W  c #7A858F",
"Q  c #7A848C",
"!  c #6F8195",
"~  c #768391",
"^  c #748292",
"/  c #758392",
"(  c #748393",
")  c #768491",
"_  c #778693",
"`  c #758395",
"'  c #748494",
"]  c #778596",
"[  c #738292",
"{  c #788593",
"}  c #788594",
"|  c #788694",
" . c #798694",
".. c #798795",
"X. c #798795",
"o. c #7C8890",
"O. c #7C8892",
"+. c #7F8B94",
"@. c #7F8990",
"#. c #728498",
"$. c #7B8999",
"%. c #7C8A99",
"&. c #7D8B9A",
"*. c #7F8D9A",
"=. c #7B8B9E",
"-. c #828D97",
";. c #848D96",
":. c #838F98",
">. c #808E9B",
",. c #818E9B",
"<. c #828F9C",
"1. c #808D9B",
"2. c #84919A",
"3. c #83909C",
"4. c #83909D",
"5. c #85939E",
"6. c #87929B",
"7. c #88949E",
"8. c #8A959E",
"9. c #8995A0",
"0. c #8A97A2",
"q. c #8A96A1",
"w. c #8C98A2",
"e. c #8D99A3",
"r. c #8E99A3",
"t. c #8D9BA5",
"y. c #8E99A3",
"u. c #8E9BA8",
"i. c #909EAA",
"p. c #919EAC",
"a. c #929FAC",
"s. c #92A1AD",
"d. c #93A1AD",
"f. c #93A1AD",
/* pixels */
"                                                                                                ",
"                                                    O O O                                       ",
"                                                  O t O t O                                     ",
"                                              O O d P O 3.B O                                   ",
"                                            O > b I S O 3.r.] O O                               ",
"                                          O t S I I O.O <.r.r.,.* O                             ",
"                                      + & c I I I 5.a.O 3.r.r.r.q.w O                           ",
"                                  o O O > p v E u.d.a.O 3.r.r.r.r.r.k O                         ",
"                              O O * q q 6 * O + w n =.O 3.r.r.r.r.r.r.B O                       ",
"                          O O 6 u i i i h / ) B j > O O %.r.r.r.r.r.r.r.` O                     ",
"                    O O & q i i i i h T ..........l O & e r.r.r.r.r.r.r.%.O O                   ",
"                    O 6 i i i i f V ............t O y u O $.r.r.r.r.r.r.e & O                   ",
"                  O * O r i i v { ........../ > % u f f - 9 r.r.r.r.r.*.O y O                   ",
"                  & d d O s ) ............J * & i f f f u O ] r.r.r.r.t - f O                   ",
"                  O c E l O B ..........B O - f f f f f f 6 > r.r.r.,.O u f *                   ",
"                  O b 9 -.n O B ......l O 6 f f f f f f f i O J r.r.t * f f 0 o                 ",
"                  O I p 6.d.x O V ..j O q f f f f f f f f f 0 ; r.<.O u f f y O                 ",
"                  > c d 7.d.d.l & 9 O u f f f f f f f f f f i O B j * f f f i o                 ",
"                X w e e q.d.d.d.t & i f f f f f f f f f f f f q & O u f f f f O                 ",
"                & p > d t.d.d.d.x - f f f f f f f f f f f f f y O + i f f f f - X               ",
"                & l O c i.d.d.d.k 6 f f f f f f f f f f i q & O > O o 7 i f f q O               ",
"                O c O D d.d.d.d.j 6 f f f f f f f f i 0 O & j / / O = o O q f u O               ",
"                O c & O.d.d.d.d.t 0 f f f f f f u - O > c ........9 $ 8 3 o O q O               ",
"                & s > +.d.d.d.d.w q f f f i q & O e V ............c O 5 8 5 = o O               ",
"                9 c l ,.d.d.d.d.> q f u 6 O & k / ..................O 3 8 8 8 5 o               ",
"              O e E E 6.d.d.d.d.: 6 - O > c ........................e # 8 8 8 8 o               ",
"              & d E E q.d.d.d.#.O O e V ............................B O 5 8 8 8 o               ",
"              O c E E r.d.! > + e + [ ................................& 3 8 8 5 O               ",
"              O S E E G ; + z q.r.t > ) ..............................p & 8 8 4 O               ",
"              O I d & & c q.r.r.r.q.> e ..............................[ O 5 8 3 o               ",
"              O & & a :.r.r.r.r.r.r.,.O l ..............................> = 8 3 o               ",
"              O s A A W r.r.r.r.r.r.r.J O B ............................l + 8 $ o               ",
"              O A A A S r.r.r.r.r.r.r.r.l O e z [ ......................) O 4 #                 ",
"              O g A A A 7.r.r.r.r.r.r.r...O - % O & e c [ ................w $ o                 ",
"              O q A A A ;.r.r.r.r.r.r.r.] O f f i q - % O & e c / ........n O o                 ",
"                * A A A Q r.r.r.r.r.r.r.[ & f f f f f f i q 6 & O & w z [ ..O O                 ",
"                O v A A A r.r.r.r.r.r.r.G & f f f f f f f f f f u q - O O & & O                 ",
"                + a A A A 6.r.r.r.r.r.r.B * f f f f f f f f f f f f f f u q & O                 ",
"                O 0 A A A O.r.r.r.r.r.r.B * f f f f f f f f f f f f f f f u O                   ",
"                  O A A A L r.r.r.r.r.r.c - f f f f f f f f f f f f f f f * O                   ",
"                  O h A A A 7.r.r.r.q.,.j * f f f f f f f f f f f f f f y o                     ",
"                  + q g s y t w > + O O O o O - y i f f f f f f f f f i O                       ",
"                    O O o @ . $ 3 3 5 5 8 5 3 $ o O * q i f f f f f f 6 O                       ",
"                      o o . < , < 1 8 8 8 8 8 8 5 4 = # O O 6 y f f u O                         ",
"                          o o . < , < 1 8 8 8 8 8 8 8 8 5 3 # o o - & o                         ",
"                              o o . < , < 2 8 5 4 3 = $ # # o o O X o                           ",
"                                  o o . o o O O o o O O X                                       ",
"                                                                                                "
};
