/* XPM */
static char *fd644f3e056d42e0f291ccfadd37adacVhZxKKNk7AapEVic[] = {
/* columns rows colors chars-per-pixel */
"48 48 124 2 ",
"   c None",
".  c #FF5500",
"X  c #FF5B00",
"o  c #FF6400",
"O  c #FF6B00",
"+  c #FF7300",
"@  c #FF7C00",
"#  c #FF8200",
"$  c #FF8B00",
"%  c #FF9300",
"&  c #FF9C00",
"*  c #FFA400",
"=  c #FFAA05",
"-  c #FFAD09",
";  c #FFB10D",
":  c #FFB512",
">  c #FFB916",
",  c #FFBD1B",
"<  c #FFC11E",
"1  c #FFC422",
"2  c #FFC424",
"3  c #FFC524",
"4  c #FFC425",
"5  c #FFC624",
"6  c #FFC625",
"7  c #FFC725",
"8  c #FFC526",
"9  c #FFC626",
"0  c #FFC726",
"q  c #FFC322",
"w  c #FFC826",
"e  c #FFC729",
"r  c #FFC62A",
"t  c #FFC929",
"y  c #FFC92B",
"u  c #FFC92B",
"i  c #FFC930",
"p  c #FFC931",
"a  c #FFCB31",
"s  c #FFCB32",
"d  c #FFCC31",
"f  c #FFCC33",
"g  c #FFCE35",
"h  c #FFCD36",
"j  c #FFCC37",
"k  c #FFCD37",
"l  c #FFCB36",
"z  c #FFCD3A",
"x  c #FFCD3B",
"c  c #FFCE3B",
"v  c #FFCE40",
"b  c #FFCF40",
"n  c #FFCF43",
"m  c #FFCF44",
"M  c #FFD045",
"N  c #FFD146",
"B  c #FFD145",
"V  c #FFD048",
"C  c #FFD148",
"Z  c #FFD34E",
"A  c #FFD34F",
"S  c #FFD34B",
"D  c #FFD553",
"F  c #FFD557",
"G  c #FFD452",
"H  c #FFD458",
"J  c #FFD558",
"K  c #FFD55A",
"L  c #FFD55B",
"P  c #FFD55C",
"I  c #FFD55D",
"U  c #FFD559",
"Y  c #FFD761",
"T  c #FFD962",
"R  c #FFD866",
"E  c #FFD967",
"W  c #FFDA67",
"Q  c #FFD865",
"!  c #FFD969",
"~  c #FFDA6A",
"^  c #FFD96C",
"/  c #FFD96D",
"(  c #FFDA6E",
")  c #FFDA6F",
"_  c #FFD96B",
"`  c #FFDC74",
"'  c #FFDB74",
"]  c #FFDF7B",
"[  c #FFDE7C",
"{  c #FFDF7D",
"}  c #FFDE7E",
"|  c #FFDD7C",
" . c #FFDF80",
".. c #FFDD80",
"X. c #FFE081",
"o. c #FFE184",
"O. c #FFE289",
"+. c #FFE18B",
"@. c #FFE391",
"#. c #FFE491",
"$. c #FFE395",
"%. c #FFE393",
"&. c #FFE499",
"*. c #FFE69D",
"=. c #FFE7A0",
"-. c #FFE8A5",
";. c #FFEAA4",
":. c #FFE9A6",
">. c #FFE9A5",
",. c #FFEAAD",
"<. c #FFE9AB",
"1. c #FFEDB6",
"2. c #FFECB3",
"3. c #FFEDBD",
"4. c #FFEEBD",
"5. c #FFEFC2",
"6. c #FFF0C0",
"7. c #FFF1C3",
"8. c #FFF2CC",
"9. c #FFF3D0",
"0. c #FFF4D3",
"q. c #FFF6DC",
"w. c #FFF7E1",
"e. c #FFF8E3",
/* pixels */
"                                                                                                ",
"                                                                                                ",
"                                                                                                ",
"                                          X .                                                   ",
"                                          o o X                                                 ",
"                                          O + O X                                               ",
"                                        . O # @ O X                                             ",
"                                        X + $ $ @ o .                                           ",
"                                        o @ % & $ + X                                           ",
"                                      X O # % * & @ o                                           ",
"                                      o + $ & * * $ + .                                         ",
"                                    X O # % * = * & @ X     X X                                 ",
"                                  . O @ $ & * - = * @ X     o O X                               ",
"                                X o @ # % * = ; - * # o     o @ O .                             ",
"                              X o + # % & * - ; - = $ O     O # # o                             ",
"                            . o + # % & * = ; : ; = $ O   . + % % @ X                           ",
"                          . o + # % & * = - : : ; = $ + X o @ % * # O .                         ",
"                          X + @ $ & * = - ; > > : - % @ + @ $ * * & @ X                         ",
"                        . O @ $ & * = - - : , > : ; & $ # $ & = = * # o                         ",
"                        X + # % * = - ; : > , , > ; * * & * * - = * $ O .                       ",
"                      . o + $ & * - ; : > , < < > ; = * * * = ; - * $ O .                       ",
"                      . O @ % * = ; : : > , q q , : - - = - ; ; - * % + .                       ",
"                      . O # % * - : : > , q 5 q < : ; - ; ; : : - = $ + .                       ",
"                      X O # & = ; : > , q 5 p 5 q > : : : : > : ; * $ + .                       ",
"                      X + # * - : > , < 5 p v p 5 , > > > > , : ; * $ O                         ",
"                      . + $ * - : , < 1 t C F N w , > , , , , > - * # o                         ",
"                .     . + $ * ; > , 1 e v I ! H j q < , < q < > - & # o   .                     ",
"                o .   X + $ * ; > q 5 z D /  ./ N 5 1 q q 5 < > - & @ X X o                     ",
"                O + X X + $ * ; , 5 j A ! X.$.[ H p 5 5 5 t q : = % @ O + +                     ",
"                O # @ + @ $ * ; , t C T [ &.;.@.E v j f v j < : = % # # $ +                     ",
"                X $ % # # % * ; , f H ] #.,.3.;.` H A H I z , ; * & % % & O                     ",
"                X # * & & * * ; , j E O.;.6.9.1. ./ / [ E f , : = * * = * .                     ",
"                  @ * = = = - ; > j / *.4.0.e.8.@.O.#.@.! e , : ; ; ; - %                       ",
"                  o & - ; ; : : , u / ;.8.e.e.0.<.<.2.$.H e < > > > : = O                       ",
"                  . # = : > > , < u ! <.q.e.e.q.5.8.6.+.H j 5 q q , ; %                         ",
"                    O & ; , q 5 t M ! ;.q.e.e.e.q.e.5.O.! D m c t > * O                         ",
"                      O * > e G E ' o.,.q.e.e.e.e.e.3.*.O. .! C q - @                           ",
"                      . @ * < N ` *.6.q.e.e.e.e.e.e.0.3.,.+.Y r - #                             ",
"                        . + & , A X.3.e.e.e.e.e.e.e.e.9.=.! u = @                               ",
"                            O $ - l ' ;.q.e.e.e.e.e.0.#.F > & +                                 ",
"                              X O $ * , B [ $.;.@./ z : & @ X                                   ",
"                                    o + # $ % & % $ @ o                                         ",
"                                                                                                ",
"                                                                                                ",
"                                                                                                ",
"                                                                                                ",
"                                                                                                ",
"                                                                                                "
};
