/* XPM */
static char *_072226eecea48f9f79f80644d1c5d3f74eGXVfXIkpWK9fo[] = {
/* columns rows colors chars-per-pixel */
"48 48 127 2 ",
"   c None",
".  c #030201",
"X  c #0B0502",
"o  c #0C0902",
"O  c #070808",
"+  c #0A0B0B",
"@  c #110603",
"#  c #130A03",
"$  c #1B0B05",
"%  c #130F0C",
"&  c #171102",
"*  c #1B1103",
"=  c #1F1803",
"-  c #0F1111",
";  c #111111",
":  c #260606",
">  c #230E06",
",  c #261206",
"<  c #2B1406",
"1  c #261904",
"2  c #2D1F05",
"3  c #23150E",
"4  c #301407",
"5  c #331A07",
"6  c #341608",
"7  c #391609",
"8  c #3D1B09",
"9  c #2E1A10",
"0  c #2C2104",
"q  c #352605",
"w  c #3B2C05",
"e  c #24201D",
"r  c #2F2B28",
"t  c #332D29",
"y  c #4E0C0C",
"u  c #431C0A",
"i  c #491E0B",
"p  c #6F1112",
"a  c #701111",
"s  c #7B1213",
"d  c #442F06",
"f  c #422009",
"g  c #4D210B",
"h  c #53220C",
"j  c #5A260D",
"k  c #59290D",
"l  c #4B3607",
"z  c #4D3A06",
"x  c #523E06",
"c  c #60270E",
"v  c #652A0F",
"b  c #682B0F",
"n  c #6F310F",
"m  c #6D2D10",
"M  c #712F11",
"N  c #753111",
"B  c #7C3311",
"V  c #423C38",
"C  c #564106",
"Z  c #664D07",
"A  c #6D5208",
"S  c #705209",
"D  c #775908",
"F  c #7A5B09",
"G  c #4D4945",
"H  c #54524F",
"J  c #515656",
"K  c #5F6260",
"L  c #666D6D",
"P  c #9B1618",
"I  c #A41719",
"U  c #A61819",
"Y  c #853613",
"T  c #8D3A14",
"R  c #943D15",
"E  c #993F16",
"W  c #C41C1E",
"Q  c #D91F21",
"!  c #DE2022",
"~  c #9E4116",
"^  c #A34317",
"/  c #AA4618",
"(  c #B24919",
")  c #BC4D1B",
"_  c #816108",
"`  c #886609",
"'  c #9D760A",
"]  c #A1790A",
"[  c #C24F1B",
"{  c #C4501C",
"}  c #CB531C",
"|  c #D4571E",
" . c #D7581E",
".. c #DB5A1F",
"X. c #E05C1F",
"o. c #E45D20",
"O. c #E95F21",
"+. c #EC6121",
"@. c #F26322",
"#. c #B2860B",
"$. c #B4880B",
"%. c #BD8E0C",
"&. c #C4940C",
"*. c #CD9B0D",
"=. c #D39F0D",
"-. c #D5A10D",
";. c #DCA60E",
":. c #E6AD0F",
">. c #EDB20F",
",. c #F5B90F",
"<. c #F7BA10",
"1. c #FEBF10",
"2. c #FEBF10",
"3. c #7B8180",
"4. c #868F8F",
"5. c #8A9494",
"6. c #959F9F",
"7. c #A4AFAF",
"8. c #A6B2B2",
"9. c #B9C6C6",
"0. c #BFCDCD",
"q. c #C3D0D0",
"w. c #C7D5D5",
"e. c #CAD8D8",
"r. c #D3E1E1",
"t. c #D5E4E4",
"y. c #D6E5E5",
/* pixels */
"                                                                                                ",
"                                                                                                ",
"                                                                                                ",
"                      ; ; O . O -                                                               ",
"                + O J 5.8.0.r.w.6.-                                                             ",
"              + L 9.9.q.e.y.y.y.y.7.O                                                           ",
"            O O . O O . . . e 3.y.y.t $ X @                                                     ",
"          . +       X g ^ o.[ 9 4.y.G ~ +.T # X X                                               ",
"                X 6 } @.@.@.@.R H y.V / @.@.c h N $ X                                           ",
"              X N @.@.@.@.@.@.R H y.t ) @.@.@.@.@.O.u X                                         ",
"            X T @.@.@.@.@.@.@.Y K y.% ..@.@.@.@.@.@.O.u X                       # # X           ",
"          X B @.@.@.@.@.@.@.@.R r L 3 @.@.@.| (  .@.@.@./ 8 . X @ .           X c ) c X         ",
"        X u ../ Y M B T ) O.@.+.T N { @.} 8 & d # 8 R } @.@.+.{ ~ N i > # X < ^ @.o.@.j X       ",
"        . , X # . . . . . j @.@.@.@.@.@., . D %.:._ . g @.@.@.@.@.@.@.@.@.@.@.@.) $ @./ #       ",
"      . @     @ X h ^ } O.@.@.@.@.@.@.@.@.} N 8 o , B +.@.@.@.@.@.@.@.@.@.@.@.@.+. .o.g X       ",
"            X N O.@.@.@.@.@.@.@.@.@.@.@.@.@.@.@.@.@.@.@.@.@.@.@.@.@.@.@.@.@.@.@. .M X @         ",
"          X { @.@.@.O.o.@.@.@.@.@.@.@...E @.@...B 7 $ > 4 i b B R / ) [ ) ^ B 6 X X             ",
"        . m M 6 # X X . . > / @.@.@.@.8 B @.( X . X s W P y . . X # @ @ # # X                   ",
"        . @ .       o X . < ..@.@.@.@.# } @.| ( { Y # y I ! Q a X X                             ",
"                  o A &.# ..@.@.@.@.@.T # ) @.@.@.@.o.i . . : p U s @ @ X                       ",
"                # &.2.S N @.} ) @.@.@.@...O.@.@.@.@.@.+.b X   . @ . @ . . . .                   ",
"              . F ] &.1 { @.Y 8 u h @.@.@.@.@.@.@.@.@.@.@.^ # @                                 ",
"              # o . . X +.@.o.N ~ +.@.@.} ......@.@.@.@.@.@.+.R 4 X #                           ",
"                o Z %., @.@.@.@.@.@.@.@.m u # R @.o.@ > j T o.@.@. .R b 6 > # X X               ",
"              o ] 2.*.5 @.@.@.@.@.@.@.@...B } @.@./ #     @ X T @.@.@.@.@.@.@.@.{ X             ",
"            o Z 2.2.-.1 @.@.@.@.+./ Y b @.@.@.@.@.^ #         X Y @.+.( @... .@.@.N X           ",
"            o *.,.;.-.X O.@.@.@.o.6 8 ) @.@.@.@.@. .X           X o.m . } 6 $ ..# ) X           ",
"            . o . o . . R @.@.@.@.@.@.@.@.@.@.@.@.@.M X         X 8 X . 6 X X < . B .           ",
"                  # w %.* o.@.@.@.@.@.+.@.@...O.Y 8 o.T X       X       X   X X   # X           ",
"                  0 ,.2.D 8 +.@.o.u [ $ o.@.B # 6 ) @.@.| 6 X               .     .             ",
"                X -.2.2.2.l 5  .@.B X m @.@.+.) +.@.@.@.@.@.T X X                 X             ",
"                C >.` q X . o # R @.o.@.@.@.@.@.@.@.@.@.@.@. ...h X                             ",
"              # 0 o o   o z :.=.q u | @.@.@.@.@...} @.@.@.} , @.@.( $ X                         ",
"              o X     o _ 2.2.2.2._ # T @.@.R b j B @.@.h , b @.@.@.o.8 @                       ",
"                    o Z >.] z & . . . . k +...B < ) @.@.O./ +.@.@.@.@.+.u @                     ",
"                    . Z o #       o x #.l k @.@.@.@.@.@.@.@.@.@.@.@.@.@.+.>                     ",
"                    . o       o 0 =.2.2.,.2 ~ @.@.@.@.@.T / , @.@.( o.^ { ) X                   ",
"                            o x <.>.*.&.$.D * +.@.} ..o.u X ) @.@.b 6 > } @.>                   ",
"                          X o x # . # o . . . ( +.$ # ~ ..^ @.@.@.X.b } @.@.M                   ",
"                          . #       # X z ' _ n @.|  .@.@.@.@.@.@.@.@.@.@.@.R @                 ",
"                                o w #.,.2.2.&.5 @.o.} m ) @./ Y m b @.@.@.@.T @                 ",
"                            o . D %.>.2.2.2.-., @.( . c o.@.) X b ..@.@.@.@.N .                 ",
"                          . o # & # o = D &.' f @.@...@.@.@.@.@.@.@.@.@.@.@.6                   ",
"                                        o # . . . . . . . . . . . . . . . . .                   ",
"                                                                                                ",
"                                                                                                ",
"                                                                                                ",
"                                                                                                "
};
