/* XPM */
static char *_8f37d46ef534938bae3e38eaf4f7af2eUwQ3qe4HWGE6ado[] = {
/* columns rows colors chars-per-pixel */
"48 48 226 2 ",
"   c None",
".  c #21232D",
"X  c #22242D",
"o  c #23252D",
"O  c #23242E",
"+  c #23252F",
"@  c #242630",
"#  c #252730",
"$  c #262731",
"%  c #252931",
"&  c #262830",
"*  c #272930",
"=  c #262831",
"-  c #272931",
";  c #262832",
":  c #272933",
">  c #272A34",
",  c #282932",
"<  c #282933",
"1  c #282A32",
"2  c #282A33",
"3  c #292A33",
"4  c #292B33",
"5  c #2A2C33",
"6  c #282A34",
"7  c #292B35",
"8  c #2A2B34",
"9  c #292C34",
"0  c #2B2C34",
"q  c #2A2C35",
"w  c #2A2D35",
"e  c #2B2D35",
"r  c #2B2C36",
"t  c #2B2E37",
"y  c #2C2D35",
"u  c #2D2E36",
"i  c #2D2F36",
"p  c #2E2F36",
"a  c #2E2F37",
"s  c #2D2F38",
"d  c #2E3139",
"f  c #2F3139",
"g  c #32343C",
"h  c #35363D",
"j  c #37383E",
"k  c #383840",
"l  c #383A40",
"z  c #393A40",
"x  c #393B41",
"c  c #3A3B43",
"v  c #3B3D42",
"b  c #3C3D43",
"n  c #3C3D44",
"m  c #3D3E44",
"M  c #3E3F45",
"N  c #3E4046",
"B  c #43434A",
"V  c #42444A",
"C  c #44454B",
"Z  c #45474B",
"A  c #45454D",
"S  c #48484E",
"D  c #4B4C4F",
"F  c #494C50",
"G  c #4B4D50",
"H  c #4C4C51",
"J  c #4F5054",
"K  c #515155",
"L  c #545457",
"P  c #555659",
"I  c #56575A",
"U  c #57575A",
"Y  c #58585B",
"T  c #5A5B5D",
"R  c #5B5C5E",
"E  c #484B64",
"W  c #454A6A",
"Q  c #444A6B",
"!  c #474B6A",
"~  c #474C68",
"^  c #474C6F",
"/  c #484C69",
"(  c #4B4F6B",
")  c #4B4F6D",
"_  c #484D6F",
"`  c #4E516A",
"'  c #4E526A",
"]  c #4C506E",
"[  c #5E5E60",
"{  c #525568",
"}  c #535668",
"|  c #565868",
" . c #575A6F",
".. c #5A5C6B",
"X. c #5B5D6D",
"o. c #5A5C6E",
"O. c #474C71",
"+. c #474D71",
"@. c #464C72",
"#. c #484C70",
"$. c #484E71",
"%. c #434B7A",
"&. c #434A7B",
"*. c #454B78",
"=. c #444B7D",
"-. c #454C7D",
";. c #5B5D70",
":. c #5F6061",
">. c #5E606F",
",. c #5E616F",
"<. c #606164",
"1. c #696B6A",
"2. c #6F706F",
"3. c #666773",
"4. c #6C6E78",
"5. c #6D7079",
"6. c #717171",
"7. c #787876",
"8. c #7A7B79",
"9. c #7D7D7B",
"0. c #7F7F7C",
"q. c #80807D",
"w. c #82827E",
"e. c #434C85",
"r. c #454D8A",
"t. c #454E8C",
"y. c #464F8E",
"u. c #495294",
"i. c #4A5295",
"p. c #495296",
"a. c #495396",
"s. c #4A5397",
"d. c #797A80",
"f. c #7D7E84",
"g. c #838380",
"h. c #848481",
"j. c #858582",
"k. c #868682",
"l. c #868683",
"z. c #818285",
"x. c #818286",
"c. c #878784",
"v. c #8A8A87",
"b. c #8B8C88",
"n. c #8E8E89",
"m. c #8D8D8D",
"M. c gray56",
"N. c #92928D",
"B. c #979696",
"V. c #989797",
"C. c #9A9A94",
"Z. c #9D9C96",
"A. c #9E9C97",
"S. c #9E9E97",
"D. c #9B9B99",
"F. c #9F9F98",
"G. c #9FA09C",
"H. c #A0A099",
"J. c #A3A19B",
"K. c #A4A29B",
"L. c #A1A09D",
"P. c #A6A69E",
"I. c #A7A79F",
"U. c #A6A6A1",
"Y. c #A9A7A0",
"T. c #ABABA3",
"R. c #ACAAA2",
"E. c #ADADA4",
"W. c #AEAEA4",
"Q. c #AFAEA5",
"!. c #B1B1A7",
"~. c #B2B0A7",
"^. c #B2B0A9",
"/. c #B2B2A8",
"(. c #B3B3A9",
"). c #B1B0AA",
"_. c #B2B1AB",
"`. c #B5B3AB",
"'. c #B6B4AB",
"]. c #B7B5AB",
"[. c #B7B6AD",
"{. c #B7B7AD",
"}. c #B8B6AC",
"|. c #B8B8AE",
" X c #B9B9AF",
".X c #BCBAB0",
"XX c #BDBBB1",
"oX c #BDBCB2",
"OX c #BFBFB3",
"+X c #BFBEB5",
"@X c #C1BFB5",
"#X c #C2C0B6",
"$X c #C3C1B6",
"%X c #C4C2B6",
"&X c #C4C4B8",
"*X c #C5C5B9",
"=X c #C7C5BA",
"-X c #C8C6BA",
";X c #C9C7BB",
":X c #CAC8BC",
">X c #CAC9BC",
",X c #CCCABE",
"<X c #CDCBBE",
"1X c #CDCBBF",
"2X c #CECCC0",
"3X c #CFCDC0",
"4X c #D0CEC1",
"5X c #D0D0C2",
"6X c #D2D0C3",
"7X c #D3D1C4",
"8X c #D5D3C6",
"9X c #D6D4C6",
"0X c #D7D5C6",
"qX c #D6D6C7",
"wX c #D7D5C8",
"eX c #D8D6C9",
"rX c #D9D7C9",
"tX c #D9D7CA",
"yX c #DAD8CA",
"uX c #DBD9CA",
"iX c #DCDACB",
"pX c #DDDBCE",
"aX c #DCDCCD",
"sX c #DEDCCD",
"dX c #DFDDCE",
"fX c #E0DECF",
/* pixels */
"                                                                                                ",
"                                                                                                ",
"                                                                                                ",
"                                                                                                ",
"                                                                                                ",
"                                                                                                ",
"                                      i % 1 h C N i + t +                                       ",
"                                % % T C.5XfXfXfXfXfXaX}.9.z 8                                   ",
"                              % 2.3XfXfXaX@XR.F.I. XeXfXfXfXI.v t                               ",
"                          $ z *XfXaXI.0.g.H.{.*XXXY.1XE.c.9XfXaXl.1                             ",
"                        > R eXfX`.7.'.fXfXfXfXfXfXfXfXfX9XeXY.uXfXE.5                           ",
"                      % J aXfXfX4XfXfXfXfXfXfXfXfXfXfXfXfXfX8XiXfXfX{.1                         ",
"                      b wXfXfXfXfXfXfXfXfXfXfXfXfXfXfXfXfXfXfXfXfXfXfXS.1                       ",
"                    1  XfXfXfXfXfXfXfXfXfXfXfXfXfXfXfXfXfXfXfXfXfXfXfXfXI                       ",
"                    :.fXfXfXfXfXfXfXfXfXfXfXfXfXfXfXfXfXfXfXfXfXfXfXfXfX*X%                     ",
"                  % %XfXfXfXfXfXfXfXfXfXfXfXfXfXfXfXfXfXfXfXfXfXfXfXfXfXfX[                     ",
"                  j fXfXfXfXfXfXfXfXfXfXfXfXfXfXfXfXfXfXfXfXfXfXfXfXfXfXfXK.1                   ",
"                + 8.fXfXfXfXfXfXfXfXfXfXfXfXfXfXfXfXfXfXfXfXfXfXfXfXfXfXfXeX$                   ",
"                i S.fXfXfXfXfXfXfXfXfXfXfXfXfXfXfXfXfXfXfXfXfXfXfXfXfXfXfXfXM                   ",
"                s ^.fXfXfXfXfXfXfXfXfXfXfXfXfXfXfXfXfXfXfXfXfXfXfXfXfXfXfXfXI                   ",
"                i %XfXfXfXfXfXfXfXfXfXfXfXfXfXfXfXfXfXfXfXfXfXfXfXfXfXfXfXfX<.                  ",
"                i XXfXfXfXfXfXfXfXfXfXfXfXfXfXfXfXfXfXfXfXfXfXfXfXfXfXfXfXfXL                   ",
"                d T.fXfXfXfXfX5Xm.m.{.eXfXfXfXfXfXfXfXfXeX{.m.m.5XfXfXfXfXfXV                   ",
"                1 v.fXfXfXfX^.( t.r.&.) f.fXfXfXfXfXfXf.] &.r.t.~ ^.fXfXfXaX8                   ",
"                  I fXfXfXfXX.s.s.s.s.s.=.L.fXfXfXfXG.-.s.s.s.s.s.;.fXfXfX@Xt                   ",
"                  1 iXfXfXaX( s.s.s.s.s.s.4.fXfXfXfX4.s.s.s.s.s.s.( aXfXfXb.t                   ",
"                  i H.fXfX9X^ s.s.s.s.s.t.z.fXfXfXfXz.t.s.s.s.s.s.) 9XfXfXz                     ",
"                    D fXfXaX` s.s.s.s.s.O.1XfXfXfXfX1XO.s.s.s.s.s.` aXfX'.t                     ",
"                    8 E.fXfXB.O.s.s.s.s.>.fXfX1XiXfXfX>.s.s.s.s.$.V.fXfXH                       ",
"                      M aXfXfXOX..O.*.{ :XfXU.Q | fXfX:X{ *.O...OXfXfXR.t                       ",
"                      t T.fXfXfXfX*XOXpXfXfXX.s.&.^.fXfXpXOX-XfXfXfXfXC                         ",
"                      . l.fXfXfXfXfXfXfXfX3X$.s.s.3.fXfXfXfXfXfXfXfXfX$                         ",
"                        q.fXfXfXfXfXfXfXfXd.t.s.s.( 9XfXfXfXfXfXfXfXaX+                         ",
"                        Y fXfXfXfXfXfXfXfX .s.s.s.e.D.fXfXfXfXfXfXfX#X1                         ",
"                        1 E.fXfXfXfXfXfXfX5.Q Q Q E +XfXfXfXfXfXfXuXK                           ",
"                          1 I q.l.!.fXfXfXfX9X7X7XaXfXfXfX9Xn.l.6.g t                           ",
"                                  1 -XfXfXfXfXfXfXfXfXfXfX1.%                                   ",
"                                  d !.fXfXfXfXfXfXfXfXfXfXG                                     ",
"                                  d !.@X5X XuX^.fX^.fX^.fXG                                     ",
"                                  d !.1XeXN.5Xg.fXS.fXg.fXG                                     ",
"                                  t l.H.#XN.5Xg.fXT.fXg.9Xi                                     ",
"                                    1 z B M A z S z S z i t                                     ",
"                                                                                                ",
"                                                                                                ",
"                                                                                                ",
"                                                                                                ",
"                                                                                                ",
"                                                                                                "
};
