/* XPM */
static char *result[] = {
/* columns rows colors chars-per-pixel */
"48 48 71 1 ",
"  c #8D5E4C",
". c #8F614D",
"X c #91634D",
"o c #946550",
"O c #9C6C55",
"+ c #9F6E58",
"@ c #9F7056",
"# c #A17155",
"$ c #AD7D54",
"% c #A3735C",
"& c #AB7E5B",
"* c #B27F53",
"= c #A77760",
"- c #A77860",
"; c #AA7A64",
": c #AF825C",
"> c #BA8652",
", c #BE8B54",
"< c #B3865C",
"1 c #B78859",
"2 c #BD8B5C",
"3 c #B58564",
"4 c #BA8C65",
"5 c #C08D5F",
"6 c #CA9554",
"7 c #C6965A",
"8 c #CB9B5C",
"9 c #CFA15E",
"0 c #D1A25E",
"q c #ECB556",
"w c #E7B459",
"e c #C29264",
"r c #C69C65",
"t c #CA9C64",
"y c #C2976B",
"u c #C69B6C",
"i c #D19F61",
"p c #CEA668",
"a c #D2A363",
"s c #D6A862",
"d c #DEAE64",
"f c #D3AA68",
"g c #DDB262",
"h c #D7B26C",
"j c #DBB66E",
"k c #DEBA6F",
"l c #D4AD71",
"z c #DFBB70",
"x c #EBBC64",
"c c #EBBF6A",
"v c #FFC655",
"b c #FFC857",
"n c #F7C35D",
"m c #FEC658",
"M c #FFC95A",
"N c #F2C364",
"B c #FECD62",
"V c #F0C96F",
"C c #F9CD68",
"Z c #FFD165",
"A c #FED369",
"S c #EDC770",
"D c #EFCD76",
"F c #F1CF78",
"G c #F2D177",
"H c #F9D677",
"J c #FFDA74",
"K c #F5D479",
"L c #FDDD7B",
"P c #FFE07D",
"I c None",
/* pixels */
"IIIIIIIIIIIIIIIIIIIIPPPAAPPPIIIIIIIIIIIIIIIIIIII",
"IIIIIIIIIIIIIIIIIJJLPPPAAPPPPPPIIIIIIIIIIIIIIIII",
"IIIIIIIIIIIIIIIAJPPPPPPAAPPPPPPPPIIIIIIIIIIIIIII",
"IIIIIIIIIIIIIAJLPPPPPPPAAPPPPPPPPPIIIIIIIIIIIIII",
"IIIIIIIIIIIIZJLPPPPPPPPAAPPPPPPPPPPPIIIIIIIIIIII",
"IIIIIIIIIIIbMJPPPPPPHKGggDGPPPPPPPLAAIIIIIIIIIII",
"IIIIIIIIIIZAAALPPPGk<O@XX@:rkDPPPJAALPIIIIIIIIII",
"IIIIIIIIIIAPJAALPh:O.o@OO@@OO:jPPAAJPLIIIIIIIIII",
"IIIIIIIIIAJPPJAApO +++;+@:;;% olAAJPPPPIIIIIIIII",
"IIIIIIIIZAPPPPJa@oO-++;++;;;-OoO8JPPPPPIIIIIIIII",
"IIIIIIIIZJPPPPj@+++;++;++;;;;O+++kPPPPPPIIIIIIII",
"IIIIIIIIZLPPPD:+;%+-%%;++;;:;+%;+:DPPPPPIIIIIIII",
"IIIIIIIZAPPPLpO%;++-;;;+%;;;;++:=OpLPPPPPIIIIIII",
"IIIIIIIZJPPPG<O=:%+;;;;++;;;-O%;%O<GPPPPPIIIIIII",
"IIIIIIIZJJJLS1O#;++-;;;++;;;-+%;+#,VLJLJJIIIIIII",
"IIIIIvBZZZZZZC,O;%+;;;;++;;;-+%;O>vBZZBZZZZIIIII",
"IIIIIvbbbbvvvv5O;%O-;;;++;;;;+%-O,vvbbvvMvMIIIII",
"IIIIIvvbMMMvvq*O;%+-;;3++;;;;+%;O$qqbbMbMvvIIIII",
"IIIIIvvMBBZZM7O%;%+;;;;++;;;-++;#O6vMZBZBBIIIIII",
"IIIIIIvbbbvvv7O;;%+-;;;++;;;;+%;&O6vbbvvbvIIIIII",
"IIIIIIbMMZMZw:O;;%+-;;3:;3;;-+%;;+:qMMZBBMIIIIII",
"IIIIIIIALPLLrO%;;++-;;4FF4;;;++;;%O8AJPPPIIIIIII",
"IIIIIIIALLPLrO-;;%+;33SPPS43;+%;;-O9AJLPPIIIIIII",
"IIIIIIIAJAJLrO;;;%+-3xnLLCw3-+%;;;O7AJALPIIIIIII",
"IIIIIIIAJBJLr+;;;#+=inilltni;O%;;;O7AJAJPIIIIIII",
"IIIIIIIAJAJLrO-;;%+;dx3;;3xd;+%;;-O7AAAJPIIIIIII",
"IIIIIIIAJBLLr+-;;%+=aN5;;5Ns;+#;;;O7AJZJPIIIIIII",
"IIIIIIIAJAJLrO;;;%+;4NxttxN4=+%;;;O7CJZJPIIIIIII",
"IIIIIIIAJZJLrO;;;%O;;yxCCxe;;+%;;;O7BJALPIIIIIII",
"IIIIIIIAJZJLr+=;;%+=;;3<<3;;=+%;;;O7AJZJPIIIIIII",
"IIIIIIIAJZJLrO=;;%+;;;;+O;;;=+%;;%O7CJAJPIIIIIII",
"IIIIIIIAJALLr+=;;%+=;;;++;;;;O%;;;O7BJAJPIIIIIII",
"IIIIIIIAJAJLr+-;;%+-;;;++;;;;+%;;;O7AJZLPIIIIIII",
"IIIIIIIAJAJLrO;;;%O;;;;++;;;-++;--O8ZAAJPIIIIIII",
"IIIIIIIAJZJLrO-;;%+-;;;+%;;;-+%;+#O8ZJAJPIIIIIII",
"IIIIIIIAJZJLrO;;;++;;;;%%;;;;++-++O9ZJAPPIIIIIII",
"IIIIIIIAJALLrO=;;%O-==;++;;;=+%-++O9AJAJPIIIIIII",
"IIIIIIIAJALLpO;;;%+;++;++;;;;++=++@aZJALPIIIIIII",
"IIIIIIIAJLPLrO+==Oo%OO=oO===%o+%OOOsZJPPPIIIIIII",
"IIIIIIICKLKKp+OOOo.Oo O..OOOO oO.oOsCHKLHIIIIIII",
"IIIII#3yuuuu4;-==%%%%%=%%=%=%%%=%%;eyuuuu3;IIIII",
"IIIIO%;=;;=;;;;;;;;;;;;;;;;;;;;;;;;;;;;;;;;;IIII",
"IIIIO+===%%==%==%=%%-==%==%====%==%%%=%=====IIII",
"IIIIOOOOOOOOOOOOOOOOOOOOOOOOOOOOOOOOOOOOOOOOIIII",
"IIO=;====;======;%;;=;=;====;==;%;;%===;=;==;;II",
"IIO%;;;;;;;;;;;;;;;;;;;;;;;;;;;;;;;;;;;;;;;;;;II",
"IIO#%%%#%%%%%#%%%%%+%%#%%%=%#%%%%%%%%%%%=%#%%%II",
"IIOOOoOOOOoOOOOOoOOOOOoOOOoOOoOOOOOOOoOOoOOOOOII"
};
