/* XPM */
static char *_a9a65bd3f3a4a22c4e20f181e190a5dcFIG4MjM71xbCQSZ[] = {
/* columns rows colors chars-per-pixel */
"48 48 123 2 ",
"   c None",
".  c #010101",
"X  c #010102",
"o  c #010202",
"O  c #010303",
"+  c #020202",
"@  c #020203",
"#  c #020303",
"$  c #020304",
"%  c #030305",
"&  c #030406",
"*  c #030506",
"=  c #030507",
"-  c #040507",
";  c #040607",
":  c #040608",
">  c #050608",
",  c #040609",
"<  c #040709",
"1  c #050709",
"2  c #05070A",
"3  c #05070B",
"4  c #05080A",
"5  c #05080B",
"6  c #06080B",
"7  c #05080C",
"8  c #05090C",
"9  c #05090D",
"0  c #06090C",
"q  c #06090D",
"w  c #050A0C",
"e  c #060A0D",
"r  c #05090E",
"t  c #060A0E",
"y  c #070A0E",
"u  c #070B0E",
"i  c #060A0F",
"p  c #070A0F",
"a  c #060B0F",
"s  c #070B0F",
"d  c #070B10",
"f  c #060C10",
"g  c #080A10",
"h  c #080C11",
"j  c #080D12",
"k  c #090E14",
"l  c #0A1117",
"z  c #0A1218",
"x  c #0C131C",
"c  c #0C141C",
"v  c #0C151E",
"b  c #0E1721",
"n  c #101823",
"m  c #14202E",
"M  c #14212E",
"N  c #162232",
"B  c #162433",
"V  c #172737",
"C  c #182738",
"Z  c #192939",
"A  c #1C2E42",
"S  c #1D3146",
"D  c #1E3146",
"F  c #20344A",
"G  c #21354B",
"H  c #223851",
"J  c #233953",
"K  c #263F5B",
"L  c #27405C",
"P  c #27415E",
"I  c #284360",
"U  c #2A4664",
"Y  c #2B4765",
"T  c #2B4766",
"R  c #2C4868",
"E  c #2D4A6B",
"W  c #2E4C6D",
"Q  c #2F4E70",
"!  c #315073",
"~  c #325377",
"^  c #335579",
"/  c #34567B",
"(  c #34577C",
")  c #36587F",
"_  c #365980",
"`  c #375B83",
"'  c #385C85",
"]  c #385D86",
"[  c #395E87",
"{  c #395F88",
"}  c #3A5F89",
"|  c #3B628D",
" . c #3C638E",
".. c #3C648F",
"X. c #3D6590",
"o. c #3D6692",
"O. c #3E6793",
"+. c #3E6794",
"@. c #3F6895",
"#. c #406997",
"$. c #406A97",
"%. c #406A99",
"&. c #416B9A",
"*. c #426C9C",
"=. c #426E9E",
"-. c #436F9F",
";. c #436FA0",
":. c #4470A1",
">. c #4571A3",
",. c #4572A4",
"<. c #4673A5",
"1. c #4674A6",
"2. c #4674A7",
"3. c #4775A8",
"4. c #4776AA",
"5. c #4877AA",
"6. c #4877AB",
"7. c #4878AC",
"8. c #4979AD",
"9. c #4979AE",
"0. c #4A7AAF",
"q. c #4A7BB1",
"w. c #4B7CB2",
/* pixels */
"                                                                                                ",
"                                                                                                ",
"                                                                                                ",
"                                                                                                ",
"                                                                                                ",
"                                          q q , 5 5 q q q ,                                     ",
"                            , * % 5 c N J E ' %.%.<.$.{ ~ U G B c q . .                         ",
"                            * =.0.w.w.w.w.w.w.w.w.w.w.w.w.w.w.w.w.w.w.h                         ",
"                            q w.w.w.w.w.w.w.w.w.w.w.w.w.w.w.w.w.w.w.X.,                         ",
"                            z w.w.w.w.w.w.w.w.w.w.w.w.w.w.w.w.w.w.w.I ,                         ",
"                            n w.w.w.w.w.w.w.w.w.w.w.w.w.w.w.w.w.w.w.V                           ",
"                            m w.w.w.w.w.w.w.0.5.1.1.1.1.1.=.%.X. ._ k                           ",
"                            Z w.w.w.w.w.w.w.x . * * * * * , , q q q 5                           ",
"                            D w.w.w.w.w.w.w.q                                                   ",
"                            J w.w.w.w.w.w.w.q                                                   ",
"                          % P w.w.w.w.w.w.w.,                                                   ",
"                          5 U w.w.w.w.w.w.w.-                                                   ",
"                          q W w.w.w.w.w.w.w.%                                                   ",
"                          q ! w.w.w.w.w.w.q.%                                                   ",
"                          q ^ w.w.w.w.w.w.5.*                                                   ",
"                          q _ w.w.w.w.w.w.0.h , . . . . * * , , , q                             ",
"                          q ' w.w.w.w.w.w.w.w.w.w.w.0.1.1.=.%.%.W g                             ",
"                          q | w.w.w.w.w.w.w.w.w.w.w.w.w.w.w.w.w.Q q                             ",
"                          q X.w.w.w.w.w.w.w.w.w.w.w.w.w.w.w.w.w.P %                             ",
"                          , %.w.w.w.w.w.w.w.w.w.w.w.w.w.w.w.w.w.D                               ",
"                          , =.w.w.w.w.w.w.w.3.1.3.1.;.%...' _ ~ b                               ",
"                          , :.w.w.w.w.w.w.5.. * * , 5 q q q q q q                               ",
"                          - :.w.w.w.w.w.w.=.,                                                   ",
"                          * <.w.w.w.w.w.w.X.5                                                   ",
"                          * <.w.w.w.w.w.w.{ q                                                   ",
"                          * 1.w.w.w.w.w.w.) q                                                   ",
"                          * 3.w.w.w.w.w.w.( g                                                   ",
"                          * 3.w.w.w.w.w.w.( f                                                   ",
"                          * 5.w.w.w.w.w.w.) q                                                   ",
"                          * 0.w.w.w.w.w.w.X.,                                                   ",
"                          * 1.w.w.w.w.w.w.q.k . * 5 q d q q .                                   ",
"                          , ;.w.w.w.w.w.w.w.w.w.q.:.+.' ~ E K G A C m -                         ",
"                          q %.w.w.w.w.w.w.w.w.w.w.w.w.w.w.w.w.w.w.w.$.q                         ",
"                          q ..w.w.w.w.w.w.w.w.w.w.w.w.w.w.w.w.w.w.w.@.q                         ",
"                          q / w.w.w.w.w.w.w.w.w.w.w.w.w.w.w.w.w.w.w.%.q                         ",
"                          , U w.w.w.w.w.w.w.q.w.w.w.w.w.w.w.w.w.w.w.=.5                         ",
"                            % q l h q , % . . . . . % - , , 5 h h h q ,                         ",
"                                                                                                ",
"                                                                                                ",
"                                                                                                ",
"                                                                                                ",
"                                                                                                ",
"                                                                                                "
};
