/* XPM */
static char *result[] = {
/* columns rows colors chars-per-pixel */
"48 48 9 1 ",
"  c #120D08",
". c #20150C",
"X c #2F2217",
"o c #46301E",
"O c #734F31",
"+ c #FF1831",
"@ c #CBBFBF",
"# c #E9E9E9",
"$ c None",
/* pixels */
"$$$$$$$$$$$$$$$$$$$$$$$$$$$$$$$$$$$$$$$$$$$$$$$$",
"$$$$$$$$$$$$$$$$$$$$$$$$$$$$$$$$$$$$$$$$$$$$$$$$",
"$$$$$$$$$$$$$$$$$$$$$$$$$$$$$$$$$$$$$$$$$$$$$$$$",
"$$$$$$$$$$$$$$$$$$$$$$$$$$$$$$$$$$$$$$$$$$$$$$$$",
"$$$$$$$$$$$$$$$$$$$$$$$$$$$$$$$$$$$$$$$$$$$$$$$$",
"$$$$$$$$$$$$$$$$$$$$$$$$$$$$$$$$$$$$$$$$$$$$$$$$",
"$$$$$$$$$$$$$$$$$$$$$$$$$$$$$$$$$$$$$$$$$$$$$$$$",
"$$$$$$$$$$$$$$$$$$$$$$$$$$$$$$$$$$$$$$$$$$$X   $",
"$$$$$$$$$$$$$$$$$$$$$$$$$$$$$$$$$$$$$$$$$$O oo$$",
"$$XX $$$$$$$$XXX$$$$$$$$$$$$$$$$$$$$$$$$$OooooO$",
"$$XX $$$$$$$$XXX$$$$$$$$$$$$$$$$$$$$$$$$$OooooO$",
"$X  OOO$$$$$X   $$$$$$$$$$$$$$$$$$$$$$$$Oooooo X",
"$   ooOOOO$$X OO$$$$$$$$$$$$$$$$$$$$$$OOoooo$$  ",
"$ $$$oooOOOO  ooO$$$$$$$$$$$$$$$$$OOOOooooO$$$$ ",
"$$$$$ooooooO oooOO$$$$$$$$$$$$$OOOoooooooooX$$$$",
"$$$$$oooooooOoooooOO$$$$$$$$$oooooooooooooo XX$$",
"$$$$$oooooooOoooooOO$$$$$$$$$oooooooooooooo XX$$",
"$$$$OooooooooooooooOO$$OOOOOOOOooooooo$$$$$   $$",
"$$OOooooooooooooooooOOOOoOOOO###OOo$$$$$$$$$$$$$",
"$X  oooooooooooooooooOOooooo######$$$$$$$$$$$$$$",
"X oooooooooooooooooooOOooo#####+###$$$$$$$$$$$$$",
" $$$$Ooooo$$$$oooooooooooo@@###+###$$$$$$$$$$$$$",
" $$$$Ooooo$$$$oooooooooooo@@###+###$$$$$$$$$$$$$",
" $$$XXo$$$$$$$$$$$oooooooo@@@##+###$$$$$$$$$$$$$",
"$$$$X $$$$$$$$$$$$$ooooOOOoo@@####o$$$$$$$$$$$$$",
"$$$$ $$$$$$$$$$$$$$$oooooOOOO@@@oo$$$$$$$$$$$$$$",
"$$$$ $$$$$$$$$$$$$$$oooo#.ooOOoo..o$$$$$$$$$$$$$",
"$$$$ $$$$$$$$$$$$$$$ooo...##.#.#..$$$$$$$$$$$$$$",
"$$$$ $$$$$$$$$$$$$$$ooo...##.#.#..$$$$$$$$$$$$$$",
"$$$$$$$$$$$$$$$$$$$$$oo.........$$$$$$$$$$$$$$$$",
"$$$$$$$$$$$$$$$$$  OOOo#.#..#.#$$$$$$$$$$$$$$$$$",
"$$$$$$$$$$$$$$$$$ $ooOoOOOOOOOO$OOoX$$$$$$$$$$$$",
"$$$$$$$$$$$$$$$$$$$$oOoooooooooOooO X$$$$$$$$$$$",
"$$$$$$$$$$$$$$$$$$$$oOoooooooooOooO X$$$$$$$$$$$",
"$$$$$$$$$$$$$$$$$$$$ ooooooo$$ooooo$ $$$$$$$$$$$",
"$$$$$$$$$$$$$$$$$$$XX oooooo$$$oooX$$$$$$$$$$$$$",
"$$$$$$$$$$$$$$$$$$$$$$$$oooo$$$$$$ X$$$$$$$$$$$$",
"$$$$$$$$$$$$$$$$$$$$$$$$oo$$$$$$$$$$$$$$$$$$$$$$",
"$$$$$$$$$$$$$$$$$$$$$$$Oo$$$$$$$$$$$$$$$$$$$$$$$",
"$$$$$$$$$$$$$$$$$$$$$$$Oo$$$$$$$$$$$$$$$$$$$$$$$",
"$$$$$$$$$$$$$$$$$$$$$$$oo$$$$$$$$$$$$$$$$$$$$$$$",
"$$$$$$$$$$$$$$$$$$$$$$Oo$$$$$$$$$$$$$$$$$$$$$$$$",
"$$$$$$$$$$$$$$$$$$$$$$oo$$$$$$$$$$$$$$$$$$$$$$$$",
"$$$$$$$$$$$$$$$$$$$$$$$$$$$$$$$$$$$$$$$$$$$$$$$$",
"$$$$$$$$$$$$$$$$$$$$$$$$$$$$$$$$$$$$$$$$$$$$$$$$",
"$$$$$$$$$$$$$$$$$$$$$$$$$$$$$$$$$$$$$$$$$$$$$$$$",
"$$$$$$$$$$$$$$$$$$$$$$$$$$$$$$$$$$$$$$$$$$$$$$$$",
"$$$$$$$$$$$$$$$$$$$$$$$$$$$$$$$$$$$$$$$$$$$$$$$$"
};
