/* XPM */
static char *result[] = {
/* columns rows colors chars-per-pixel */
"48 48 127 2 ",
"   c #332D3B",
".  c #3E293D",
"X  c #263238",
"o  c #293139",
"O  c #41283E",
"+  c #581F44",
"@  c #611C46",
"#  c #6C1948",
"$  c #72164A",
"%  c #7E124C",
"&  c #462740",
"*  c #532243",
"=  c #A52C3B",
"-  c #AE3735",
";  c #AC323E",
":  c #AF383C",
">  c #B53D33",
",  c #B23A3A",
"<  c #BD492A",
"1  c #BC4434",
"2  c #E74C17",
"3  c #E84E16",
"4  c #E64B18",
"5  c #E95414",
"6  c #EB5C12",
"7  c #DD6A15",
"8  c #D4621B",
"9  c #EE640F",
"0  c #EF690D",
"q  c #F06F0B",
"w  c #EC7C0A",
"e  c #F67C06",
"r  c #F3730A",
"t  c #F47808",
"y  c #E7711E",
"u  c #EB751C",
"i  c #F57F17",
"p  c #F27C18",
"a  c #CA5423",
"s  c #D55E27",
"d  c #D25B29",
"f  c #C44C31",
"g  c #DA6325",
"h  c #C96D37",
"j  c #E06A22",
"k  c #870E4F",
"l  c #880E4F",
"z  c #8A114E",
"x  c #961E45",
"c  c #981F47",
"v  c #91164A",
"b  c #931A49",
"n  c #981D48",
"m  c #870E50",
"M  c #8C0F50",
"N  c #910F51",
"B  c #891251",
"V  c #8A1856",
"C  c #8B1D59",
"Z  c #951152",
"A  c #9C1153",
"S  c #911F58",
"D  c #A41355",
"F  c #AD1457",
"G  c #AD1E5D",
"H  c #9B2343",
"J  c #95224B",
"K  c #8D255E",
"L  c #A52B41",
"P  c #A03447",
"I  c #AD205E",
"U  c #8F2C64",
"Y  c #913268",
"T  c #923A6C",
"R  c #AE2462",
"E  c #B14F42",
"W  c #B25140",
"Q  c #AC4051",
"!  c #964B78",
"~  c #9C4B78",
"^  c #CD7D69",
"/  c #F38405",
"(  c #F98602",
")  c #FB8C00",
"_  c #F68318",
"`  c #F78D1A",
"'  c #F7911B",
"]  c #F8951C",
"[  c #F99B1D",
"{  c #FAA31F",
"}  c #CF8F27",
"|  c #CF9028",
" . c #D78C35",
".. c #DD9533",
"X. c #CEA12B",
"o. c #FBAB21",
"O. c #FCB724",
"+. c #FDB924",
"@. c #F5BA2B",
"#. c #FEC427",
"$. c #FFCA27",
"%. c #FEC728",
"&. c #FFCA28",
"*. c #F7BB6F",
"=. c #F4B378",
"-. c #F6BF79",
";. c #995A82",
":. c #AE5782",
">. c #A65F87",
",. c #9A6085",
"<. c #AE6C90",
"1. c #A17594",
"2. c #A485A0",
"3. c #AF85A0",
"4. c #A58FA5",
"5. c #B08EA6",
"6. c #A99CAE",
"7. c #B098AC",
"8. c #A9A1B2",
"9. c #AEB3BD",
"0. c #B0B3BE",
"q. c #CEA6BB",
"w. c #AFBDC4",
"e. c #B0BEC5",
"r. c #E5D6DE",
"t. c gray95",
"y. c None",
/* pixels */
"y.y.y.y.y.y.y.y.y.y.y.y.y.y.y.y.y.y.y.y.y.y.y.y.y.y.y.y.y.y.y.y.y.y.y.y.y.y.y.y.y.y.y.y.y.y.y.y.",
"y.y.y.y.y.y.y.y.y.y.y.y.y.y.y.y.y.y.y.y.y.y.y.y.y.y.y.y.y.y.y.y.y.y.y.y.y.y.y.y.y.y.y.y.y.y.y.y.",
"y.y.y.y.y.y.y.y.y.y.y.y.y.y.y.y.y.y.y.y.y.y.y.y.y.y.y.y.y.y.y.y.y.y.y.y.y.y.y.y.y.y.y.y.y.y.y.y.",
"y.y.y.y.y.y.y.y.y.y.y.y.y.y.y.e.y.y.y.y.y.y.y.y.y.y.y.y.y.y.y.y.y.y.y.y.y.y.y.y.y.y.y.y.y.y.y.y.",
"y.y.y.y.y.y.y.y.y.y.y.y.y.y.y.e.y.y.y.y.y.y.y.y.y.y.y.y.y.y.y.y.y.y.y.y.y.y.y.y.y.y.y.y.y.y.y.y.",
"y.y.y.y.y.y.y.y.y.y.y.y.y.y.y.e.e.y.y.y.y.y.y.y.y.y.y.y.y.y.y.y.y.y.y.y.y.y.y.y.y.y.y.y.y.y.y.y.",
"y.y.y.y.y.y.y.y.y.y.y.y.y.y.y.e.e.y.y.F F y.y.y.y.y.y.y.y.y.y.y.y.y.y.y.y.y.y.y.y.y.y.y.y.y.y.y.",
"y.y.y.y.y.y.y.y.y.y.y.y.y.y.y.0.e.0.y.y.F F F y.w.e.y.y.y.y.y.y.y.y.y.y.y.y.y.y.y.y.y.y.y.y.y.y.",
"y.y.y.y.y.y.y.y.y.y.y.F F F F 3.e.e.5.G F F F F w.e.y.y.y.y.y.y.y.y.y.y.y.y.y.y.y.y.y.y.y.y.y.y.",
"y.y.y.y.y.y.y.y.y.F F F F F F :.e.e.e.7.R F F F <.w.y.y.y.y.y.y.y.y.y.y.y.y.y.y.y.y.y.y.y.y.y.y.",
"y.y.y.y.y.y.y.F F F F F F F F I e.e.e.e.9.~ A D G 0.e.y.y.y.y.y.y.y.y.y.y.y.y.y.y.y.y.y.y.y.y.y.",
"y.y.y.y.y.y.F F F F F F F F F A 1.e.e.e.e.e.4.U N >.w.y.y.y.y.y.y.y.y.y.y.y.y.y.y.y.y.y.y.y.y.y.",
"y.y.y.y.y.y.y.y.y.F F F F F Z k V 9.e.e.e.e.e.9.Y k T 2.y.y.y.y.y.y.y.y.y.y.y.y.y.y.y.y.y.y.y.y.",
"y.y.y.y.y.y.y.y.F F F F F M l l l ,.e.e.e.e.e.e.! k M l K y.y.y.y.y.y.y.y.y.y.y.y.y.y.y.y.y.y.y.",
"y.y.y.y.y.y.y.F F F F F M k k l l B 8.e.e.e.e.6.V k l l z k l y.y.y.y.y.y.y.y.y.y.y.y.y.y.y.y.y.",
"y.y.y.y.y.y.F F F F F Z k k l l l l K 9.6.;.Y B k k k k m k k M k y.y.y.y.y.y.y.y.y.y.y.y.y.y.y.",
"y.y.y.y.y.F F F F F A l l l l l l l l l l l l l l l k l l l l l l k y.y.y.y.y.y.y.y.y.y.y.y.y.y.",
"y.y.y.y.F F F F F F M l l l l l l l l l m k l l @ o X o . # l l l l y.y.y.y.y.y.y.y.y.y.y.y.y.y.",
"y.y.y.y.F F F F F A l l l l l l l l l l k z k k k $   X X.| @ l l l y.y.y.y.y.y.y.y.y.y.y.y.y.y.",
"y.y.y.F F F F F F Z l l l l l l l l l l l l l z l l % O | 8 o % l l y.y.y.y.y.y.y.y.y.y.y.y.y.y.",
"y.y.y.F F F F F F k k k k x m m l l l l l l k k l k z k # &   O l l l y.y.y.y.y.y.y.y.y.y.y.y.y.",
"y.y.y.F F F F F D k l k k 1 z k l l l l M l z H - b m k k l l l l l l k y.y.y.y.y.y.y.y.y.y.y.y.",
"y.y.F F y.y.y.F A l l l k g b z l l l l k = 7 ) ) / = k k k l l l l l l k y.y.y.y.y.y.y.y.y.y.y.",
"y.y.y.y.y.y.y.F A l l l z i : z l l l l k H a ) ) ) / H l M l l l l l l l l k M l y.y.y.y.y.y.y.",
"y.y.y.y.y.y.y.F A k k k L i g z l l l l l l l < ) ) ) w z l l l M M m k k l   + l k y.y.y.y.y.y.",
"y.y.y.y.y.y.F F A k k k ; i _ h k l l l l l l v ) ) ) ) 7 z l l M M k k l l   X * m y.y.y.y.y.y.",
"y.y.y.y.y.y.F F D k l l , i i {  .J l l l l l l / ) ) ) ) a l l B B l l l l l k l l y.y.y.y.y.y.",
"y.y.y.y.y.F F F F l l l ; i i ] &.%...P l l l l > ) ) -.) ) ) t.t.P l l l l l M l l y.y.y.y.y.y.",
"y.y.y.y.y.F F F F N l l n i i _ %.&.&.$.y.y.k l l = ^ r.) ) ) t.-./ S l l l l l l k y.y.y.y.y.y.",
"y.y.y.y.F F F F F A l l l p i i { &.&.&.$.y.y.l l l l l H > 7 -.) ) q.M l l l l l l y.y.y.y.y.y.",
"y.y.y.y.F F F F F F l l l s i i _ #.&.&.&.&.y.y.l l l l l l m a ) ) t.=.4 y.y.y.y.y.y.y.y.y.y.y.",
"y.y.y.y.F F F F F F A l l L i i i ` #.&.&.&.$.y.y.l l l l l l z q ) *.) / 6 2 4 2 y.y.y.y.y.y.y.",
"y.y.y.y.F F F F F F F l l l j _ i i ] #.$.&.&.&.W k z k l l l l 2 e ) ) ) ) ) 5 4 4 y.y.y.y.y.y.",
"y.y.y.y.F F y.y.y.F F A l l H p i i _ ` #.&.&.&.@. .y.k l l l l y.6 ) ) ) ) ) 4 y.y.y.y.y.y.y.y.",
"y.y.y.y.F y.y.y.y.F F F l k l > i i i i _ o.&.&.&.&.&.l m k k M y.4 5 4 q ) ) 5 3 y.y.y.y.y.y.y.",
"y.y.y.y.F y.y.y.y.F F F N l l M 1 i i i i i [ #.&.&.&.l z y.y.k y.4 2 y.2 ( ) ) r 0 6 4 y.y.y.y.",
"y.y.y.y.y.y.y.y.F F F F A M k k l 1 i i i i i ` #.&.&.W @.y.y.y.y.2 2 y.4 0 ) ) t 9 9 t 5 y.y.y.",
"y.y.y.y.y.y.y.y.F F F F D M k k l l 1 i i i i i ` $.&.&.&.&.y.y.y.y.y.y.y.2 ( e 4 y.y.4 9 4 y.y.",
"y.y.y.y.y.y.y.y.F F F F F l l l l l k f i i i i i [ &.&.&.&.&.y.y.y.y.y.y.4 5 9 4 y.y.y.2 4 y.y.",
"y.y.y.y.y.y.y.y.F F y.F D l l l l l l k d i i i i i O.&.&.&.&.&.y.y.y.y.y.y.y.2 4 4 y.y.y.4 y.y.",
"y.y.y.y.y.y.y.y.F y.y.y.y.M k k l l l l v u i i i i ' $.&.&.&.&.&.y.y.y.y.y.y.y.y.y.y.y.y.4 y.y.",
"y.y.y.y.y.y.y.y.y.y.y.y.y.M k k k k l l m , i i i i i O.&.&.&.&.&.&.y.y.y.y.y.y.y.y.y.y.y.y.y.y.",
"y.y.y.y.y.y.y.y.y.y.y.y.k l l l k k l l M z y i i i i ' &.&.&.&.&.&.y.y.y.y.y.y.y.y.y.y.y.y.y.y.",
"y.y.y.y.y.y.y.y.y.y.y.y.l l l l M l l l k k 1 _ i i i _ O.&.&.&.&.&.&.y.y.y.y.y.y.y.y.y.y.y.y.y.",
"y.y.y.y.y.y.y.y.y.y.y.l l l l l l l l l m M H i i i i i ' &.&.&.&.&.&.&.y.y.y.y.y.y.y.y.y.y.y.y.",
"y.y.y.y.y.y.y.y.y.y.y.y.y.y.y.y.y.y.y.y.y.y.y.y.y.y.y.y.y.y.y.y.y.y.y.y.y.y.y.y.y.y.y.y.y.y.y.y.",
"y.y.y.y.y.y.y.y.y.y.y.y.y.y.y.y.y.y.y.y.y.y.y.y.y.y.y.y.y.y.y.y.y.y.y.y.y.y.y.y.y.y.y.y.y.y.y.y.",
"y.y.y.y.y.y.y.y.y.y.y.y.y.y.y.y.y.y.y.y.y.y.y.y.y.y.y.y.y.y.y.y.y.y.y.y.y.y.y.y.y.y.y.y.y.y.y.y."
};
