/* XPM */
static char *result[] = {
/* columns rows colors chars-per-pixel */
"48 48 127 2 ",
"   c #332D3B",
".  c #3E293D",
"X  c #263238",
"o  c #293139",
"O  c #41283E",
"+  c #581F44",
"@  c #611C46",
"#  c #6C1948",
"$  c #72164A",
"%  c #7E124C",
"&  c #462740",
"*  c #532243",
"=  c #A52C3B",
"-  c #AE3735",
";  c #AC323E",
":  c #AF383C",
">  c #B53D33",
",  c #B23A3A",
"<  c #BD492A",
"1  c #BC4434",
"2  c #E74C17",
"3  c #E84E16",
"4  c #E64B18",
"5  c #E95414",
"6  c #EB5C12",
"7  c #DD6A15",
"8  c #D4621B",
"9  c #EE640F",
"0  c #EF690D",
"q  c #F06F0B",
"w  c #EC7C0A",
"e  c #F67C06",
"r  c #F3730A",
"t  c #F47808",
"y  c #E7711E",
"u  c #EB751C",
"i  c #F57F17",
"p  c #F27C18",
"a  c #CA5423",
"s  c #D55E27",
"d  c #D25B29",
"f  c #C44C31",
"g  c #DA6325",
"h  c #C96D37",
"j  c #E06A22",
"k  c #870E4F",
"l  c #880E4F",
"z  c #8A114E",
"x  c #961E45",
"c  c #981F47",
"v  c #91164A",
"b  c #931A49",
"n  c #981D48",
"m  c #870E50",
"M  c #8C0F50",
"N  c #910F51",
"B  c #891251",
"V  c #8A1856",
"C  c #8B1D59",
"Z  c #951152",
"A  c #9C1153",
"S  c #911F58",
"D  c #A41355",
"F  c #AD1457",
"G  c #AD1E5D",
"H  c #9B2343",
"J  c #95224B",
"K  c #8D255E",
"L  c #A52B41",
"P  c #A03447",
"I  c #AD205E",
"U  c #8F2C64",
"Y  c #913268",
"T  c #923A6C",
"R  c #AE2462",
"E  c #B14F42",
"W  c #B25140",
"Q  c #AC4051",
"!  c #964B78",
"~  c #9C4B78",
"^  c #CD7D69",
"/  c #F38405",
"(  c #F98602",
")  c #FB8C00",
"_  c #F68318",
"`  c #F78D1A",
"'  c #F7911B",
"]  c #F8951C",
"[  c #F99B1D",
"{  c #FAA31F",
"}  c #CF8F27",
"|  c #CF9028",
" . c #D78C35",
".. c #DD9533",
"X. c #CEA12B",
"o. c #FBAB21",
"O. c #FCB724",
"+. c #FDB924",
"@. c #F5BA2B",
"#. c #FEC427",
"$. c #FFCA27",
"%. c #FEC728",
"&. c #FFCA28",
"*. c #F7BB6F",
"=. c #F4B378",
"-. c #F6BF79",
";. c #995A82",
":. c #AE5782",
">. c #A65F87",
",. c #9A6085",
"<. c #AE6C90",
"1. c #A17594",
"2. c #A485A0",
"3. c #AF85A0",
"4. c #A58FA5",
"5. c #B08EA6",
"6. c #A99CAE",
"7. c #B098AC",
"8. c #A9A1B2",
"9. c #AEB3BD",
"0. c #B0B3BE",
"q. c #CEA6BB",
"w. c #AFBDC4",
"e. c #B0BEC5",
"r. c #E5D6DE",
"t. c gray95",
"y. c None",
/* pixels */
"y.y.y.y.y.y.y.y.y.y.y.y.y.y.y.y.y.y.y.y.y.y.y.y.y.y.y.y.y.y.y.y.y.y.y.y.y.y.y.y.y.y.y.y.y.y.y.y.",
"y.y.y.y.y.y.y.y.y.y.y.y.y.y.y.y.y.y.y.y.y.y.y.y.y.y.y.y.y.y.y.y.y.y.y.y.y.y.y.y.y.y.y.y.y.y.y.y.",
"y.y.y.y.y.y.y.y.y.y.y.y.y.y.y.y.y.y.y.y.y.y.y.y.y.y.y.y.y.y.y.y.y.y.y.y.y.y.y.y.y.y.y.y.y.y.y.y.",
"y.y.y.y.y.y.y.y.y.y.y.y.y.y.y.y.y.y.y.y.y.y.y.y.y.y.y.y.y.y.y.y.e.y.y.y.y.y.y.y.y.y.y.y.y.y.y.y.",
"y.y.y.y.y.y.y.y.y.y.y.y.y.y.y.y.y.y.y.y.y.y.y.y.y.y.y.y.y.y.y.y.e.y.y.y.y.y.y.y.y.y.y.y.y.y.y.y.",
"y.y.y.y.y.y.y.y.y.y.y.y.y.y.y.y.y.y.y.y.y.y.y.y.y.y.y.y.y.y.y.e.e.y.y.y.y.y.y.y.y.y.y.y.y.y.y.y.",
"y.y.y.y.y.y.y.y.y.y.y.y.y.y.y.y.y.y.y.y.y.y.y.y.y.y.y.F F y.y.w.e.y.y.y.y.y.y.y.y.y.y.y.y.y.y.y.",
"y.y.y.y.y.y.y.y.y.y.y.y.y.y.y.y.y.y.y.y.y.y.w.w.y.F F F y.y.9.e.0.y.y.y.y.y.y.y.y.y.y.y.y.y.y.y.",
"y.y.y.y.y.y.y.y.y.y.y.y.y.y.y.y.y.y.y.y.y.y.w.w.F F F F G 5.e.e.3.F F F F y.y.y.y.y.y.y.y.y.y.y.",
"y.y.y.y.y.y.y.y.y.y.y.y.y.y.y.y.y.y.y.y.y.y.w.<.F F F R 7.e.e.e.:.F F F F F F y.y.y.y.y.y.y.y.y.",
"y.y.y.y.y.y.y.y.y.y.y.y.y.y.y.y.y.y.y.y.y.e.0.I F Z ~ 9.e.e.e.w.G F F F F F F F F y.y.y.y.y.y.y.",
"y.y.y.y.y.y.y.y.y.y.y.y.y.y.y.y.y.y.y.y.y.w.>.Z U 4.e.e.e.e.e.1.A F F F F F F F F F y.y.y.y.y.y.",
"y.y.y.y.y.y.y.y.y.y.y.y.y.y.y.y.y.y.y.y.2.T l U 9.e.e.e.e.e.9.C l Z F F F F F y.y.y.y.y.y.y.y.y.",
"y.y.y.y.y.y.y.y.y.y.y.y.y.y.y.y.y.y.y.K l l l ! e.e.e.e.e.e.;.l l l M F F F F F y.y.y.y.y.y.y.y.",
"y.y.y.y.y.y.y.y.y.y.y.y.y.y.y.y.y.l l l l l l V 8.e.e.e.e.8.B m l m l N F F F F F y.y.y.y.y.y.y.",
"y.y.y.y.y.y.y.y.y.y.y.y.y.y.y.k l l l l l l l l B Y ;.6.9.K l l l l l l Z F F F F F y.y.y.y.y.y.",
"y.y.y.y.y.y.y.y.y.y.y.y.y.y.l l l l l l k z k l l l l l l l l l l l l l l A F F F F F y.y.y.y.y.",
"y.y.y.y.y.y.y.y.y.y.y.y.y.y.l l l l # . o X X @ l l l l l l l m l l l l m M F F F F F F y.y.y.y.",
"y.y.y.y.y.y.y.y.y.y.y.y.y.y.l l l @ } X.X   $ l l l l l l l l l l l l l l l A F F F F F y.y.y.y.",
"y.y.y.y.y.y.y.y.y.y.y.y.y.y.l l % o 8 | O % l l l l l l l l l l l l l l l l N F F F F F F y.y.y.",
"y.y.y.y.y.y.y.y.y.y.y.y.y.l l l &   & # k z l l l l l l l l l l l l n l k k k F F F F F F y.y.y.",
"y.y.y.y.y.y.y.y.y.y.y.y.l l l l k k l l m m b - H l l l l l l l l l 1 k l k k D F F F F F y.y.y.",
"y.y.y.y.y.y.y.y.y.y.y.l l l l l l l l k l = / ) ) 7 = l l l l l l b g l l l k A F y.y.y.F F y.y.",
"y.y.y.y.y.y.y.l l l l l l l l l l l l l H / ) ) ) a H l l l l l l , p l l l k A F y.y.y.y.y.y.y.",
"y.y.y.y.y.y.l l +   m l l l l l z m m v w ) ) ) < z l l l l l m l j i L l l k A F y.y.y.y.y.y.y.",
"y.y.y.y.y.y.k * o   l l l l l l m m m 7 ) ) ) ) b l l l l l l l h _ i , l l k A F F y.y.y.y.y.y.",
"y.y.y.y.y.y.l l l l l l l l l l m z a ) ) ) ) e k l l l l m J  .{ _ i , l l l D F F y.y.y.y.y.y.",
"y.y.y.y.y.y.l l l l l l l l Q t.t.) ) ) -.) ) > k l l l P ..%.&.] i i ; l l l F F F F y.y.y.y.y.",
"y.y.y.y.y.y.k l l l l l m S / -.t.) ) ) r.^ = l l k y.y.$.&.&.#._ i i n m m Z F F F F y.y.y.y.y.",
"y.y.y.y.y.y.l l m l l l l q.) ) -.7 > x l l l l l y.y.$.&.&.&.{ i i p l l m A F F F F F y.y.y.y.",
"y.y.y.y.y.y.y.y.y.y.y.2 =.t.) ) a m k k l l l m y.y.&.&.&.$.#._ i i s l l l F F F F F F y.y.y.y.",
"y.y.y.y.y.y.y.2 2 2 6 e ) *.) q v k k k l l l y.y.$.&.&.&.#.` p i _ L l l Z F F F F F F y.y.y.y.",
"y.y.y.y.y.y.4 2 5 ) ) ) ) ) t 3 l l l l l l k W &.&.&.&.$.] p i i j l l m F F F F F F F y.y.y.y.",
"y.y.y.y.y.y.y.y.4 ( ) ) ) ) 6 y.l l l l l y. .@.&.&.$.#.` i _ i p L l l Z F F y.y.y.F F y.y.y.y.",
"y.y.y.y.y.y.y.2 5 ) ) q 4 5 4 y.l l k m l &.&.&.$.$.o._ i i i p , l k l F F F y.y.y.y.F y.y.y.y.",
"y.y.y.y.2 6 0 t ) ) ( 2 y.4 4 y.k y.y.z l &.&.&.#.[ _ p i i i 1 l l l N F F F y.y.y.y.F y.y.y.y.",
"y.y.y.5 t 9 6 t ) ) 0 2 y.2 2 y.y.y.y.@.W $.$.#.` p i i i i f l l l k A F F F F y.y.y.y.y.y.y.y.",
"y.y.4 9 2 y.y.2 t ( 2 y.y.y.y.y.y.y.&.&.&.$.#.` _ p i i p 1 l l l l k D F F F F y.y.y.y.y.y.y.y.",
"y.y.4 2 y.y.y.4 9 5 3 y.y.y.y.y.y.$.&.&.&.&.[ i i i i i f l l l l l l F F F F F y.y.y.y.y.y.y.y.",
"y.y.2 y.y.y.4 4 2 y.y.y.y.y.y.y.&.&.&.&.&.O.i i i i i d l l l l l l l F F y.F F y.y.y.y.y.y.y.y.",
"y.y.2 y.y.y.y.y.y.y.y.y.y.y.y.&.&.&.&.&.&.' i i i i u v l l l l l l l y.y.y.y.F y.y.y.y.y.y.y.y.",
"y.y.y.y.y.y.y.y.y.y.y.y.y.y.&.&.&.&.&.&.O._ i i i i , l l l l l l l l y.y.y.y.y.y.y.y.y.y.y.y.y.",
"y.y.y.y.y.y.y.y.y.y.y.y.y.y.&.&.&.&.&.&.' _ p i i y z l l l l l l l l l y.y.y.y.y.y.y.y.y.y.y.y.",
"y.y.y.y.y.y.y.y.y.y.y.y.y.&.&.&.&.&.&.O.p p _ i _ 1 l l l l l l l l l l y.y.y.y.y.y.y.y.y.y.y.y.",
"y.y.y.y.y.y.y.y.y.y.y.y.&.&.&.&.&.&.&.' i i i i p H m m m m m m l l l l l y.y.y.y.y.y.y.y.y.y.y.",
"y.y.y.y.y.y.y.y.y.y.y.y.y.y.y.y.y.y.y.y.y.y.y.y.y.y.y.y.y.y.y.y.y.y.y.y.y.y.y.y.y.y.y.y.y.y.y.y.",
"y.y.y.y.y.y.y.y.y.y.y.y.y.y.y.y.y.y.y.y.y.y.y.y.y.y.y.y.y.y.y.y.y.y.y.y.y.y.y.y.y.y.y.y.y.y.y.y.",
"y.y.y.y.y.y.y.y.y.y.y.y.y.y.y.y.y.y.y.y.y.y.y.y.y.y.y.y.y.y.y.y.y.y.y.y.y.y.y.y.y.y.y.y.y.y.y.y."
};
