/* XPM */
static char *result[] = {
/* columns rows colors chars-per-pixel */
"48 48 9 1 ",
"  c #120D08",
". c #20150C",
"X c #2F2217",
"o c #46301E",
"O c #734F31",
"+ c #FF1831",
"@ c #CBBFBF",
"# c #E9E9E9",
"$ c None",
/* pixels */
"$$$$$$$$$$$$$$$$$$$$$$$$$$$$$$$$$$$$$$$$$$$$$$$$",
"$$$$$$$$$$$$$$$$$$$$$$$$$$$$$$$$$$$$$$$$$$$$$$$$",
"$$$$$$$$$$$$$$$$$$$$$$$$$$$$$$$$$$$$$$$$$$$$$$$$",
"$$$$$$$$$$$$$$$$$$$$$$$$$$$$$$$$$$$$$$$$$$$$$$$$",
"$$$$$$$$$$$$$$$$$$$$$$$$$$$$$$$$$$$$$$$$$$$$$$$$",
"$$$$$$$$$$$$$$$$$$$$$$$$$$$$$$$$$$$$$$$$$$$$$$$$",
"$$$$$$$$$$$$$$$$$$$$$$$$$$$$$$$$$$$$$$$$$$$$$$$$",
"$   X$$$$$$$$$$$$$$$$$$$$$$$$$$$$$$$$$$$$$$$$$$$",
"$$oo O$$$$$$$$$$$$$$$$$$$$$$$$$$$$$$$$$$$$$$$$$$",
"$OooooO$$$$$$$$$$$$$$$$$$$$$$$$$XXX$$$$$$$$ XX$$",
"$OooooO$$$$$$$$$$$$$$$$$$$$$$$$$XXX$$$$$$$$ XX$$",
"X oooooO$$$$$$$$$$$$$$$$$$$$$$$$   X$$$$$OOO  X$",
"  $$ooooOO$$$$$$$$$$$$$$$$$$$$$$OO X$$OOOOoo   $",
" $$$$OooooOOOO$$$$$$$$$$$$$$$$$Ooo  OOOOooo$$$ $",
"$$$$XoooooooooOOO$$$$$$$$$$$$$OOooo Ooooooo$$$$$",
"$$XX oooooooooooooo$$$$$$$$$OOoooooOooooooo$$$$$",
"$$XX oooooooooooooo$$$$$$$$$OOoooooOooooooo$$$$$",
"$$   $$$$$oooooooOOOOOOOO$$OOooooooooooooooO$$$$",
"$$$$$$$$$$$$$oOO###OOOOoOOOOooooooooooooooooOO$$",
"$$$$$$$$$$$$$$######oooooOOooooooooooooooooo  X$",
"$$$$$$$$$$$$$###+#####oooOOooooooooooooooooooo X",
"$$$$$$$$$$$$$###+###@@oooooooooooo$$$$ooooO$$$$ ",
"$$$$$$$$$$$$$###+###@@oooooooooooo$$$$ooooO$$$$ ",
"$$$$$$$$$$$$$###+##@@@oooooooo$$$$$$$$$$$oXX$$$ ",
"$$$$$$$$$$$$$o####@@ooOOOoooo$$$$$$$$$$$$$ X$$$$",
"$$$$$$$$$$$$$$oo@@@OOOOooooo$$$$$$$$$$$$$$$ $$$$",
"$$$$$$$$$$$$$o..ooOOoo.#oooo$$$$$$$$$$$$$$$ $$$$",
"$$$$$$$$$$$$$$..#.#.##...ooo$$$$$$$$$$$$$$$ $$$$",
"$$$$$$$$$$$$$$..#.#.##...ooo$$$$$$$$$$$$$$$ $$$$",
"$$$$$$$$$$$$$$$$.........oo$$$$$$$$$$$$$$$$$$$$$",
"$$$$$$$$$$$$$$$$$#.#..#.#oOOO  $$$$$$$$$$$$$$$$$",
"$$$$$$$$$$$$XoOO$OOOOOOOOoOoo$ $$$$$$$$$$$$$$$$$",
"$$$$$$$$$$$X OooOoooooooooOo$$$$$$$$$$$$$$$$$$$$",
"$$$$$$$$$$$X OooOoooooooooOo$$$$$$$$$$$$$$$$$$$$",
"$$$$$$$$$$$ $ooooo$$ooooooo $$$$$$$$$$$$$$$$$$$$",
"$$$$$$$$$$$$$Xooo$$$oooooo XX$$$$$$$$$$$$$$$$$$$",
"$$$$$$$$$$$$X $$$$$$oooo$$$$$$$$$$$$$$$$$$$$$$$$",
"$$$$$$$$$$$$$$$$$$$$$$oo$$$$$$$$$$$$$$$$$$$$$$$$",
"$$$$$$$$$$$$$$$$$$$$$$$oO$$$$$$$$$$$$$$$$$$$$$$$",
"$$$$$$$$$$$$$$$$$$$$$$$oO$$$$$$$$$$$$$$$$$$$$$$$",
"$$$$$$$$$$$$$$$$$$$$$$$oo$$$$$$$$$$$$$$$$$$$$$$$",
"$$$$$$$$$$$$$$$$$$$$$$$$oO$$$$$$$$$$$$$$$$$$$$$$",
"$$$$$$$$$$$$$$$$$$$$$$$$oo$$$$$$$$$$$$$$$$$$$$$$",
"$$$$$$$$$$$$$$$$$$$$$$$$$$$$$$$$$$$$$$$$$$$$$$$$",
"$$$$$$$$$$$$$$$$$$$$$$$$$$$$$$$$$$$$$$$$$$$$$$$$",
"$$$$$$$$$$$$$$$$$$$$$$$$$$$$$$$$$$$$$$$$$$$$$$$$",
"$$$$$$$$$$$$$$$$$$$$$$$$$$$$$$$$$$$$$$$$$$$$$$$$",
"$$$$$$$$$$$$$$$$$$$$$$$$$$$$$$$$$$$$$$$$$$$$$$$$"
};
