/* XPM */
static char *_c53e345bc0f450cab792269704fa670B1SY7wdxy1atxTwn[] = {
/* columns rows colors chars-per-pixel */
"48 48 19 1 ",
"  c None",
". c #1D1B10",
"X c #36230F",
"o c #41280F",
"O c #4F3112",
"+ c #423E1D",
"@ c #583B1E",
"# c #633B13",
"$ c #413E25",
"% c #413E2D",
"& c #4F4E46",
"* c #6F6A41",
"= c #6E6A49",
"- c #6A6A67",
"; c #83837B",
": c #8E8E8E",
"> c gray60",
", c #A7A7A6",
"< c gray69",
/* pixels */
"                          :::::                 ",
"                         ::::::                 ",
"                         ::::::                 ",
"                         ------                 ",
"                         -===--                 ",
"                         ==%..-                 ",
"                         %%=..%                 ",
"       ,,,                %%==%                 ",
"      -----,      ;;;;; %%$..%.               < ",
"      -----,    ==%%;;#%%%% . %              << ",
"     -------,  =%%%%%o#$==%%%               <<  ",
"     -------, =%%%%%%%##$=%=%              <<   ",
"     -------,=%%  %=%%##===%%             <<    ",
"     -------,%%  %%===%#o%===           <<<     ",
"    ---------%   %%%%==oo=$==          <<<      ",
"    ---------    %%%%%=oo$=%=         <<<       ",
"    ---------    %===%%oo==%=         <<        ",
"    ---------      %%%%%o+ %%     +-<<<         ",
"    -----&---     $%%$ %o   %==>>> --<          ",
"    ---&-&---%     %%       %%%>>*==--          ",
"    ---&&&---%    $%%%@@@@   %%;;$=$--          ",
"    ---&&----    @@@--@@oo      --$             ",
"     -------&   @@@@--oo#o      --              ",
"     -------&  @@ooooo###oO                     ",
"     ------&    o##o####ooOO                    ",
"     -----&&   Xoo######oooo                    ",
"      ----&&   Ooo######oooo                    ",
"      ---&&    ooo###### o$$=                   ",
"       &&&     ooo######   $=                   ",
"                o$ #####   $$*                  ",
"                $$ ######   $$=                 ",
"                $$ ######   $$==                ",
"                $= ######    $$$                ",
"                $=            $                 ",
"               ===           #$                 ",
"               =$$           #$o                ",
"               $$$           #$o                ",
"              #$$           ###o                ",
"              ##$           ###                 ",
"             ##oo           ###                 ",
"             oo             ###                 ",
"            #oo             ###                 ",
"            #o             ###o                 ",
"           #o              ###o                 ",
"           #o              ##oo                 ",
"          =#o               ooo                 ",
"          $$$              $oooo                ",
"          $$$==            $ooo**               "
};
