/* XPM */
static char *cdfbbe51bf9a4d54a5c831f1dec01d67Pd68rw2YBI4t9qTe[] = {
/* columns rows colors chars-per-pixel */
"48 48 25 1 ",
"  c None",
". c #65798F",
"X c #66788E",
"o c #66798F",
"O c #677990",
"+ c #677A90",
"@ c #687A91",
"# c #697A91",
"$ c #697B91",
"% c #687C91",
"& c #798BA0",
"* c #7A8BA1",
"= c #798CA1",
"- c #788CA2",
"; c #8192A8",
": c #8293A8",
"> c #8294A8",
", c #8294A9",
"< c #8395A9",
"1 c #8395AA",
"2 c #8396AB",
"3 c #ABBCCF",
"4 c #ABBCD0",
"5 c #ABBDD0",
"6 c #B0C1D4",
/* pixels */
"                                                ",
"                                                ",
"       oooooooooooooooooooooooooooooooooo       ",
"     $+*>>>>>>>>>>>>>>>>>>>>>>>>>>>>>>>>*$$     ",
"    +>566666666666666666666666666666666665;+    ",
"   $>66666666666666666666666666666666666666;%   ",
"   +5666666666666666666666666666666666666665$   ",
"  o*6666666666666666666666666666666666666666*o  ",
"  o>6666666666666666666666666666666666666666>o  ",
"  o>6666666666666666666666666666666666666666>o  ",
"  o>6666666666666666666666666666666666666666>o  ",
"  o>6666666666666666666666666666666666666666>o  ",
"  o>6666666666666666666666666666666666666666>o  ",
"  o>6666666666666666666666666666666666666666>o  ",
"  o>6666666666666666666666666666666666666666>o  ",
"  o>66666666666666666666666666666666666666662o  ",
"  o>6666666666666666666666666666666666666666>o  ",
"  o>6666666666666666666666666666666666666666>o  ",
"  o>6666666666666666666666666666666666666666>o  ",
"  o>6666666666666666666666666666666666666666>o  ",
"  o>6666666666666666666666666666666666666666>o  ",
"  o>6666666666666666666666666666666666666666>o  ",
"  o>6666666666666666666666666666666666666666>o  ",
"  o>6666666666666666666666666666666666666666>o  ",
"  o>6666666666666666666666666666666666666666>o  ",
"  o>6666666666666666666666666666666666666666>o  ",
"  o>6666666666666666666666666666666666666666>o  ",
"  o>6666666666666666666666666666666666666666>o  ",
"  o>6666666666666666666666666666666666666666>o  ",
"  o>6666666666666666666666666666666666666666>o  ",
"  o>6666666666666666666666666666666666666666>o  ",
"  o>6666666666666666666666666666666666666666>o  ",
"  o>6666666666666666666666666666666666666666>o  ",
"  o>6666666666666666666666666666666666666666>o  ",
"  o>6666666666666666666666666666666666666666>o  ",
"  o>6666666666666666666666666666666666666666>o  ",
"  o>6666666666666666666666666666666666666666>o  ",
"  o>6666666666666666666666666666666666666666>o  ",
"  o>66666666666666666666666666666666666666662+  ",
"  o>6666666666666666666666666666666666666666>o  ",
"  o*6666666666666666666666666666666666666666=o  ",
"   $5666666666666666666666666666666666666663+   ",
"   $;66666666666666666666666666666666666666;$   ",
"    +;566666666666666666666666666666666663;+    ",
"     %$=>>>>>>>>>>>>>>>>>>>>>>>>>>>>>>>>=+$     ",
"       oooooooooooooooooooooooooooooooooo       ",
"                                                ",
"                                                "
};
